<?xml version="1.0"?><svg width="640" height="480" xmlns="http://www.w3.org/2000/svg">
 <title>caution tape</title>
 <metadata id="metadata4">image/svg+xml</metadata>
 <g>
  <title>Layer 1</title>
  <g id="layer1" transform="rotate(-179.518, 320.736, 67.5625)">
   <rect fill="black" fill-rule="evenodd" stroke-width="0.3" stroke-miterlimit="4" transform="matrix(1.13171, 0, 0.653939, -0.84286, -45.8683, -2.06544)" y="-120.055635" x="25.074784" height="74.8283" width="49.618557" id="rect5537"/>
   <rect fill="yellow" fill-rule="evenodd" stroke-width="0.3" stroke-miterlimit="4" transform="matrix(1.13171, 0, 0.653939, -0.84286, -45.8683, -2.06544)" y="-120.055299" x="74.360032" height="74.8283" width="49.618557" id="rect6424"/>
   <rect fill="black" fill-rule="evenodd" stroke-width="0.3" stroke-miterlimit="4" transform="matrix(1.13171, 0, 0.653939, -0.84286, -45.8683, -2.06544)" y="-120.055299" x="123.975558" height="74.8283" width="49.618557" id="rect6426"/>
   <rect fill="yellow" fill-rule="evenodd" stroke-width="0.3" stroke-miterlimit="4" transform="matrix(1.13171, 0, 0.653939, -0.84286, -45.8683, -2.06544)" y="-120.05533" x="173.467168" height="74.8283" width="49.618557" id="rect6428"/>
   <rect fill="black" fill-rule="evenodd" stroke-width="0.3" stroke-miterlimit="4" transform="matrix(1.13171, 0, 0.653939, -0.84286, -45.8683, -2.06544)" y="-120.050538" x="223.087758" height="74.8283" width="49.618557" id="rect6430"/>
   <rect fill="yellow" fill-rule="evenodd" stroke-width="0.3" stroke-miterlimit="4" transform="matrix(1.13171, 0, 0.653939, -0.84286, -45.8683, -2.06544)" y="-120.026338" x="272.551848" height="74.8283" width="49.618557" id="rect6432"/>
   <rect fill="black" fill-rule="evenodd" stroke-width="0.3" stroke-miterlimit="4" transform="matrix(1.13171, 0, 0.653939, -0.84286, -45.8683, -2.06544)" y="-120.01983" x="322.208528" height="74.8283" width="49.618557" id="rect6434"/>
   <rect fill="yellow" fill-rule="evenodd" stroke-width="0.3" stroke-miterlimit="4" transform="matrix(1.13171, 0, 0.653939, -0.84286, -45.8683, -2.06544)" y="-120.019494" x="371.493778" height="74.8283" width="49.618557" id="rect6436"/>
   <rect fill="black" fill-rule="evenodd" stroke-width="0.3" stroke-miterlimit="4" transform="matrix(1.13171, 0, 0.653939, -0.84286, -45.8683, -2.06544)" y="-120.019494" x="421.109288" height="74.8283" width="49.618557" id="rect6438"/>
   <rect fill="yellow" fill-rule="evenodd" stroke-width="0.3" stroke-miterlimit="4" transform="matrix(1.13171, 0, 0.653939, -0.84286, -45.8683, -2.06544)" y="-120.019525" x="470.600888" height="74.8283" width="49.618557" id="rect6440"/>
   <rect fill="black" fill-rule="evenodd" stroke-width="0.3" stroke-miterlimit="4" transform="matrix(1.13171, 0, 0.653939, -0.84286, -45.8683, -2.06544)" y="-120.014734" x="520.221498" height="74.8283" width="49.618557" id="rect6442"/>
   <rect fill="yellow" fill-rule="evenodd" stroke-width="0.3" stroke-miterlimit="4" transform="matrix(1.13171, 0, 0.653939, -0.84286, -45.8683, -2.06544)" y="-119.990533" x="569.685608" height="74.8283" width="49.618557" id="rect6444"/>
   <rect fill="black" fill-rule="evenodd" stroke-width="0.3" stroke-miterlimit="4" transform="matrix(1.13171, 0, 0.653939, -0.84286, -45.8683, -2.06544)" y="-120.019823" x="619.385008" height="74.8283" width="49.618557" id="rect6446"/>
   <rect fill="yellow" fill-rule="evenodd" stroke-width="0.3" stroke-miterlimit="4" transform="matrix(1.13171, 0, 0.653939, -0.84286, -45.8683, -2.06544)" y="-120.019487" x="668.670288" height="74.8283" width="49.618557" id="rect6448"/>
  </g>
 </g>
</svg>